<?xml version="1.0" standalone="yes"?>
<svg xmlns="http://www.w3.org/2000/svg" width="204" height="204">
<path style="fill:#000000; stroke:none;" d="M75 30L70 29C68.8445 34.336 69.9242 40.2335 74 44L73 34C93.2911 37.7671 113.649 37.7782 134 34L134 41L136 41L136 29L119 31L129 20C112.297 16.1358 80.8558 5.09502 75 30z"/>
<path style="fill:#ffffff; stroke:none;" d="M84 21C90.1862 24.7057 116.07 24.8902 122 21C108.298 14.9264 97.7141 14.9285 84 21M80 23L83 31C89.9858 28.547 84.5394 24.1043 80 23M89 26L89 31L103 34.5131L117 31C114.677 20.2613 96.6877 24.5515 89 26M77 29L77 31L80 32L81 29L80 28L77 29z"/>
<path style="fill:#000000; stroke:none;" d="M83.0008 40.5687C63.8574 45.8567 73.0954 76.095 92 70.196C111.198 64.2055 102.427 35.2024 83.0008 40.5687M134 69L133 85L132 85C128.443 75.8448 119.797 72.4973 111 70C109.505 61.2758 98.7126 61.895 100 71C90.1294 73.2846 81.7331 78.1549 78 88L77 88L75 69C62.3554 72.6988 78.178 98.0605 84 102C81.8441 105.368 82.6188 107.932 86 110L84 103L90 110L90 106C99.5194 110.99 110.301 109.735 120 106L119 111L125 103L123 111C126.665 108.758 127.397 105.564 125 102C139.298 91.8433 135.045 80.3713 137.267 66C139.168 53.7047 139.838 37.0449 121 40.2245C108.517 42.3315 105.411 58.7623 114.105 66.7755C120.171 72.3664 126.827 70.6396 134 69z"/>
<path style="fill:#ffffff; stroke:none;" d="M85.0008 43.537C69.8086 47.0406 75.5336 70.4537 90.9961 66.581C105.759 62.8837 99.5258 40.1873 85.0008 43.537M122 43.5478C106.042 47.0147 112.562 70.7854 127.999 66.5664C142.239 62.6746 136.491 40.3998 122 43.5478z"/>
<path style="fill:#000000; stroke:none;" d="M79 51C82.1906 50.3474 85.8515 48.5027 88.8519 50.6219C93.5134 53.9144 91.1478 62.3087 85.0177 61.0293C81.3718 60.2684 79.8726 55.9317 77 54C78.1423 64.2499 93.6581 68.1581 94.6667 55.9992C95.4188 46.9312 83.3504 43.4772 79 51M117 51C118.865 50.3268 120.955 49.2925 123 49.5278C131.578 50.5144 128.448 63.7735 121.043 60.7122C117.946 59.4317 116.606 55.8817 114 54C115.072 64.3695 130.503 68.1977 131.471 56C132.107 47.9812 119.86 42.1752 117 51M85 52L85 53L90 56C89.054 52.8588 88.2925 51.9312 85 52M122 51L127 55L122 51z"/>
<path style="fill:#ffffff; stroke:none;" d="M104 74L106 74C110.498 65.4829 100.513 64.1202 104 74M106 78L104 78C98.4851 68.5144 78.5724 83.8775 80.7886 93C82.1163 98.4655 89.1608 102.341 94 104.123C108.577 109.491 127.36 102.621 132 87C126.136 82.5161 112.622 66.4626 106 78z"/>
<path style="fill:#000000; stroke:none;" d="M78 103L81 110L78 103M131 103L129 111C131.736 108.917 132.237 106.174 131 103M132 121L132 133C111.922 120.703 104.538 156.876 125.998 154.889C128.805 154.629 130.704 153.515 133 152C133.729 155.403 135.806 154.987 139 155L139 121L132 121M34 123L34 128L44 128L44 155L51 155L51 128L61 128L61 123L34 123M71 133L65 131L65 155L72 155C72 147.176 70.3713 137.96 80 136L80 130L71 133M85 132L86 137C92.1572 135.597 96.7717 134.457 100 141C97.033 141 93.9461 140.778 91.0008 141.189C74.3506 143.51 91.0408 163.265 99 152L100 152C100.796 155.716 103.637 155 107 155C107 138.475 104.389 126.551 85 132M168 153C165.705 145.532 156.085 152.475 152 144L170 144C169.97 141.27 170.038 138.518 168.682 136.044C158.824 118.06 132.556 143.733 151.043 153.543C153.198 154.687 155.601 154.942 158 154.981C161.604 155.039 164.649 154.221 168 153z"/>
<path style="fill:#ffffff; stroke:none;" d="M125.015 135.762C116.41 137.089 118.161 151.387 126.985 149.638C135.107 148.028 133.6 134.437 125.015 135.762M151 141L164 141C161.782 133.354 153.564 133.87 151 141M93.1481 144.747C87.8552 147.048 92.2435 152.287 96.7716 150.253C102.02 147.896 97.7172 142.76 93.1481 144.747z"/>
<path style="fill:#000000; stroke:none;" d="M70 190C66.7499 189.642 63.1199 190.442 60.0008 189.257C57.8011 188.421 55.9109 186.832 54.5139 184.956C38.3772 163.289 90.662 165.712 72 185L71 171C66.578 172.128 61.0059 170.302 57.7431 174.394C52.3217 181.194 61.583 189.386 68 184C76.4807 189.137 79.216 178.53 75.6821 172.043C74.0839 169.11 71.2207 167.137 67.9992 166.394C40.5793 160.074 50.5606 203.28 70 190M89 166L89 186C93.9505 186 115.649 184.25 103 176C109.791 165.327 96.0583 166 89 166M111 166L111 186L114 186L114 172L115 172L121 184L123 184L129 172L130 172L130 186L133 186L133 166C127.555 167.798 124.64 174.819 123 180L121 180L114 166L111 166M155 183L154 182C142.706 186.778 134.044 172.765 146.005 168.785C148.97 167.799 152.142 169.246 155 170C144.504 152.034 125.015 189.406 148.995 186.564C151.714 186.242 153.246 184.898 155 183z"/>
<path style="fill:#ffffff; stroke:none;" d="M92 168L92 175C103.882 174.991 103.882 168.009 92 168M63.0502 173.801C56.84 174.518 57.7723 184.662 63.9992 184.083C70.5157 183.477 69.7164 173.031 63.0502 173.801M92 177L92 184C105.392 184 105.233 177.001 92 177z"/>
</svg>