<?xml version="1.0" standalone="yes"?>
<svg xmlns="http://www.w3.org/2000/svg" width="204" height="204">
<path style="fill:#000000; stroke:none;" d="M82 53L79 52L78 53C78.7648 56.9251 78.9132 60.5641 83 62L81 55C94.1166 58.8771 111.856 58.8852 125 55L124 60C127.987 59.1456 127 55.5105 127 52C118.257 53.8035 111.543 53.2335 121 46C108.113 40.4539 88.1381 36.7445 82 53z"/>
<path style="fill:#ffffff; stroke:none;" d="M89 46L89 47C95.4172 48.1382 110.676 49.6324 116 46C105.815 41.6169 99.2197 42.6747 89 46M86 48L88 54C91.9729 51.4012 90.0603 48.6777 86 48M92 53C94.7093 53.5664 97.3096 54.4769 100 55.0841C102 55.5355 113.471 54.8522 110.824 50.5417C107.682 45.4243 93.7321 48.0735 92 53M84 51L87 54L86 51L84 51z"/>
<path style="fill:#000000; stroke:none;" d="M100 79L84 94L82 80L81 80C77.407 92.1555 85.8142 99.3056 89 110L90 110L89 105L90 105L92 110L93 110L93 107L115 111L119 105L117 110C126.765 102.553 129.559 81.4072 128.851 70C128.418 63.0204 121.529 58.9454 115.004 60.2793C99.9741 63.3517 108.543 87.4283 124 80L124 92L123 92C120.013 85.6125 106.559 74.7736 100 79C105.212 67.832 94.3654 51.302 83.419 63.2284C72.6316 74.9815 89.3371 84.3597 100 79z"/>
<path style="fill:#ffffff; stroke:none;" d="M89.0154 62.7577C78.3637 66.6328 84.2867 82.5447 94.956 78.2569C104.39 74.4658 98.6695 59.2457 89.0154 62.7577M115.019 62.7569C104.737 66.5579 110.644 82.3032 120.981 78.3958C130.888 74.651 124.933 59.0916 115.019 62.7569z"/>
<path style="fill:#000000; stroke:none;" d="M86 68C97.2678 63.8304 93.6024 80.8644 85 70C83.2347 76.6634 92.9574 79.0506 95.7269 72.9414C98.6675 66.4545 89.5396 62.5411 86 68M112 66L112 67C125.845 65.6985 117.22 80.9716 112 70C107.043 85.777 135.503 67.2421 117.02 65.1821C115.195 64.9787 113.711 65.5004 112 66M90 68L93 71L90 68M116 68L116 69L118 71L119 71L116 68z"/>
<path style="fill:#ffffff; stroke:none;" d="M103 78L103 84L105 84C106.093 80.8094 105.953 79.7144 103 78M105 87C97.9828 83.3725 82.1294 90.7912 87.7855 99.8951C93.8014 109.578 122.771 109.929 122.002 95C121.662 88.386 109.516 80.8111 105 87z"/>
<path style="fill:#000000; stroke:none;" d="M84 105L87 110L84 105M122 105L121 111L122 111L122 105z"/>
<path style="fill:#ffffff; stroke:none;" d="M114 107L115 108L114 107z"/>
<path style="fill:#000000; stroke:none;" d="M64 119L64 142C69.0948 142 76.1709 143.254 80.9414 141.258C86.2813 139.023 85.2984 133.371 81 131C89.1377 118.605 72.0325 119 64 119M90 119L90 142L94 142L94 129L104 140L110 129L111 129L111 142L116 142L116 119C108.811 120.162 106.278 128.833 102 134C100.144 128.136 96.5709 120.069 90 119M142 139L142 138C138.218 136.651 134.652 139.051 131.019 137.577C125.231 135.23 124.418 127.199 130.108 124.194C134.441 121.906 138.121 125.679 142 122C139.739 120.734 137.613 119.577 134.998 119.216C116.754 116.699 116.928 145.194 134.998 142.227C137.714 141.781 139.764 140.494 142 139z"/>
<path style="fill:#ffffff; stroke:none;" d="M69 123L69 129C79.9713 128.969 80.0012 123.008 69 123M69 132L69 139C81.4612 138.992 81.4612 132.008 69 132z"/>
<path style="fill:#000000; stroke:none;" d="M12 153L12 154L12 155L14 164L16 164L19 154L16 153L16 150L19 150L12 153M69 149L69 164L71 164L71 149L69 149M118 153L118 154L118 155L120 164L122 164L125 154L122 153L122 150L125 150L118 153M153 164L155 164L158 154L155 153L159 150C150.689 146.788 152.987 159.413 153 164M23.108 153.786C16.5795 156.153 20.5837 165.707 26.892 163.377C33.407 160.972 29.4611 151.483 23.108 153.786M33 153L33 164L35 164L39 153L33 153M53 160L46 162C47.5886 163.818 54.7971 165.375 54.0787 160.995C53.6842 158.59 49.5835 156.698 48 155L54 155C47.9449 150.509 43.7873 158.962 53 160M57 156L64 158C53.2086 158.351 58.2475 163.435 66 164C65.9859 159.075 62.7562 147.886 57 156M84 163L84 162L76 159L85 159C79.4681 143.619 66.5955 168.086 84 163M95.1481 154.047C88.656 157.569 94.5292 167.034 100.682 162.971C105.761 159.618 100.558 151.112 95.1481 154.047M106 153L106 164L108 164L112 153L106 153M129.108 153.786C122.547 156.165 126.595 165.657 132.942 163.377C139.597 160.987 135.425 151.497 129.108 153.786M140 153L139 164L141 164L145 153L141 155L140 153M162 153L162 164L164 164L168 153L162 153M179 163L179 162C175.26 162.27 173.016 162.363 171 159L180 159C174.477 143.644 161.409 168.138 179 163M191 162L183 159L192 159C190.54 153.968 182.407 150.549 181.662 158.039C181.142 163.27 187.924 165.515 191 162z"/>
<path style="fill:#ffffff; stroke:none;" d="M23.3179 156.086C19.5599 158.256 22.924 164.083 26.6821 161.914C30.4401 159.744 27.076 153.917 23.3179 156.086M76 158L83 158C80.8772 154.736 78.1228 154.736 76 158M95.6034 156.047C92.5025 158.422 96.2036 164.228 99.3966 161.339C102.324 158.689 98.9856 153.457 95.6034 156.047M129.329 156.086C125.709 158.197 129.098 163.85 132.693 161.863C136.476 159.774 133.048 153.917 129.329 156.086M171 158L178 158C175.728 154.86 173.158 154.668 171 158M183 158L190 158C187.842 154.668 185.272 154.86 183 158M58 160L58 162C61.43 162.784 62.8643 162.422 64 159L58 160z"/>
</svg>
